<?xml version="1.0" encoding="UTF-8"?>
<svg xmlns="http://www.w3.org/2000/svg" viewBox="0 0 1366 768">
  <defs>
    <style>
      .cls-1 {
        fill: #27282d;
      }

      .cls-2 {
        fill: #ffdb00;
      }
    </style>
  </defs>
  <g id="Layer_2">
    <rect class="cls-2" x="-2" y="-2" width="1370" height="772"/>
  </g>
  <g id="Layer_3">
    <g>
      <g>
        <path class="cls-1" d="M538.82,126.5c2.16,5.93,6.04,11.08,9.92,15.97,5.91,7.45,13.13,13.92,21.12,19.07,10.53,6.78,22.61,10.7,35.08,11.6,7.31.53,14.72-.23,21.88-1.75,8.34-1.76,16.68-4.78,24.17-8.86,15.43-8.4,27-22.16,36.56-36.61,1.09-1.65,2.16-3.32,3.22-5,2.51-3.99.98-10.09-3.23-12.31-4.43-2.34-9.64-1.03-12.31,3.23-3.15,5.03-6.46,9.95-10.08,14.66l1.41-1.82c-5.03,6.51-10.66,12.57-17.17,17.63l1.82-1.41c-4.67,3.59-9.73,6.61-15.16,8.91l2.15-.91c-7.01,2.93-14.33,5.1-21.87,6.12l2.39-.32c-5.83.76-11.73.81-17.56.05l2.39.32c-5.62-.76-11.1-2.26-16.32-4.45l2.15.91c-5.6-2.38-10.84-5.52-15.66-9.23l1.82,1.41c-5.51-4.28-10.45-9.27-14.72-14.78l1.41,1.82c-2.55-3.31-5.16-6.88-6.8-10.76l.91,2.15c-.06-.14-.11-.28-.17-.42-.82-2.24-2.02-4.14-4.14-5.38-1.93-1.13-4.77-1.61-6.94-.91-4.33,1.4-8.01,6.34-6.29,11.07h0Z"/>
        <path class="cls-1" d="M809.82,121.71c-.05.14-.11.28-.17.42l.91-2.15c-1.64,3.88-4.25,7.45-6.8,10.76l1.41-1.82c-4.27,5.51-9.21,10.5-14.72,14.78l1.82-1.41c-4.82,3.72-10.06,6.85-15.66,9.23l2.15-.91c-5.23,2.19-10.7,3.7-16.32,4.45l2.39-.32c-5.84.76-11.73.7-17.56-.05l2.39.32c-7.54-1.02-14.86-3.18-21.87-6.12l2.15.91c-5.43-2.3-10.49-5.32-15.16-8.91l1.82,1.41c-6.51-5.06-12.14-11.12-17.17-17.63l1.41,1.82c-3.62-4.71-6.92-9.63-10.08-14.66-2.5-3.99-8.14-5.92-12.31-3.23s-5.91,8.05-3.23,12.31c9.25,14.74,20.01,28.77,34.65,38.52,7.3,4.86,15.65,8.3,24.08,10.67,7.29,2.05,14.98,3.22,22.56,3.2,12.77-.03,25.4-3.51,36.47-9.85,8.49-4.87,16.21-11.41,22.54-18.87,3.91-4.61,7.91-9.67,10.45-15.21.43-.94.85-1.9,1.21-2.87.76-2.09.18-5.08-.91-6.94s-3.23-3.65-5.38-4.14c-2.3-.52-4.89-.41-6.94.91s-3.3,3.07-4.14,5.38h0Z"/>
      </g>
      <path class="cls-1" d="M747.39,66.98c0,24.23-36.25,43.86-64.39,43.86-26.23,0-64.39-19.64-64.39-43.86s28.83-42.16,64.39-42.16,64.39,17.93,64.39,42.16Z"/>
    </g>
  </g>
</svg>